<?xml version="1.0" standalone="no"?>
<!DOCTYPE svg PUBLIC "-//W3C//DTD SVG 20010904//EN" "http://www.w3.org/TR/2001/REC-SVG-20010904/DTD/svg10.dtd">
<svg xmlns="http://www.w3.org/2000/svg" version="1.1" xlink="http://www.w3.org/1999/xlink"
  xmlns:svgjs="http://svgjs.com/svgjs" width="100" height="100"
  viewBox="5 8.811996459960938 90.00092315673828 82.37600708007812">
  <g fill="#000">
    <path
      d="M41.938 8.813C21.537 8.813 5 25.348 5 45.75c0 9.372 3.544 17.85 9.312 24.344 5.928 12.48 18.67 21.094
      33.407 21.094 3.79 0 7.432-.565 10.875-1.626-.18.06-.346.132-.532.187 12.437 0 24.535-6.208 31.5-17.593
      10.648-17.403 5.184-40.135-12.218-50.782a36.181 36.181 0 0
      0-13.438-4.906c-6.147-4.683-13.629-7.656-21.968-7.656zm0 4.093c4.973 0 9.64 1.219
      13.843 3.219-.897.062-1.798.156-2.687.281-.009-.003-.023.004-.032 0-3.459-1.362-7.181-2.156-11.124-2.156-17.394
      0-31.5 14.107-31.5 31.5 0 1.754.187 3.441.5 5.094a37.232 37.232 0 0 
      0-.126 4.937c-1.069-3.158-1.718-6.51-1.718-10.031 0-18.134 14.71-32.844 32.844-32.844zm0 
      1.938c3.53 0 6.912.614 10.062 1.718-1.179.202-2.346.47-3.5.782-.264-.006-.516-.032-.781-.032-18.433 
      0-33.724 13.504-36.5 31.157a26.423 26.423 0 0 1-.157-2.719c0-17.061 13.815-30.906 30.876-30.906zm21 
      5.781c4.22.599 8.384 1.885 12.25 4.25 15.468 9.464 20.338 29.688 10.874 45.156-3.723 6.087-9.11 
      10.426-15.218 13a36.853 36.853 0 0 0 3.75-3.469l.031-.031c4.047-2.509 7.659-5.849 10.313-10.187 
      9.077-14.837 4.43-34.235-10.407-43.313-2.327-1.424-4.787-2.391-7.281-3.125a37.083 37.083 0 0 
      0-4.312-2.281zm-15.219.781c18.134 0 32.812 14.71 32.812 32.844S65.853 87.094 47.719 87.094 
      14.875 72.384 14.875 54.25s14.71-32.844 32.844-32.844zm0 1.344c-17.394 0-31.5 14.107-31.5 
      31.5 0 17.394 14.106 31.5 31.5 31.5 17.393 0 31.5-14.106 31.5-31.5 0-17.393-14.107-31.5-31.5-31.5zm0 .625c17.061
      0 30.875 13.814 30.875 30.875S64.78 85.125 47.719 85.125 16.812 71.311 16.812 54.25s13.846-30.875
      30.907-30.875zm21.343.75a29.46 29.46 0 0 1 5.126 2.469c14.552 8.904 19.153 27.915 10.25 42.468-2.222
      3.632-5.119 6.548-8.376 8.876a36.804 36.804 0 0 0 8.594-23.688c0-12.444-6.163-23.432-15.594-30.125zm-38.124
      8.406L26 37.625l5.938 5.844c-2.028 3.141-3.032 6.493-3.032 10.062 0 3.598 1.004 6.953 3.032 10.094L26
      69.469l4.938 5.093 5.937-6c3.027 2.085 6.415 3.126 10.156 3.126 3.77 0 7.158-1.041 10.157-3.126l5.937
      6 4.969-5.093-5.938-5.844c2.028-3.141 3.031-6.496 3.032-10.094-.001-3.569-1.004-6.921-3.032-10.062l5.938-5.844-4.969-5.094-5.937
      5.969c-2.999-2.056-6.387-3.094-10.157-3.094-3.741 0-7.129 1.038-10.156 3.094l-5.937-5.969zM47
      42.438c3.084 0 5.688 1.079 7.844 3.25 2.156 2.17 3.25 4.788 3.25 7.843 0 3.084-1.111 5.705-3.282
      7.875-2.17 2.171-4.756 3.25-7.812 3.25s-5.673-1.079-7.844-3.25c-2.17-2.17-3.25-4.791-3.25-7.875
      0-3.055 1.08-5.673 3.25-7.843 2.171-2.171 4.788-3.25 7.844-3.25z">
    </path>
  </g>
</svg>